<svg width="19" height="32" viewBox="0 0 19 32" fill="none" xmlns="http://www.w3.org/2000/svg">
<path d="M17.1467 29.609C17.7329 29.0233 17.7331 28.0732 17.1472 27.4872L6.01345 16.3535C5.8182 16.1582 5.81818 15.8417 6.01342 15.6464L17.1453 4.51244C17.731 3.92664 17.731 2.97696 17.1452 2.39122L16.1076 1.35361C15.5218 0.767793 14.572 0.767831 13.9862 1.3537L1.32748 14.0146C1.32727 14.0149 1.32705 14.0151 1.32683 14.0153C1.06491 14.2757 0.857019 14.5854 0.715123 14.9264C0.57311 15.2677 0.5 15.6338 0.5 16.0035C0.5 16.3732 0.57311 16.7392 0.715123 17.0805C0.857029 17.4216 1.06493 17.7312 1.32689 17.9917C1.32708 17.9919 1.32728 17.9921 1.32748 17.9923L13.9867 30.6471C14.5723 31.2325 15.5215 31.2326 16.1073 30.6474L17.1467 29.609Z" fill="black" stroke="black"/>
</svg>
