<svg width="50" height="50" viewBox="0 0 50 50" fill="none" xmlns="http://www.w3.org/2000/svg">
<path fill-rule="evenodd" clip-rule="evenodd" d="M8.94738 5.26317C6.90001 5.26317 5.26317 6.90001 5.26317 8.94738V27.8948C5.26317 29.9421 6.90001 31.579 8.94738 31.579H10.5263C11.2243 31.579 11.8936 31.8562 12.3871 32.3497C12.8807 32.8433 13.1579 33.5126 13.1579 34.2105C13.1579 34.9085 12.8807 35.5778 12.3871 36.0713C11.8936 36.5649 11.2243 36.8421 10.5263 36.8421H8.94738C3.99475 36.8421 1.39825e-05 32.8474 1.39825e-05 27.8948V8.94738C-0.00206606 7.77181 0.227945 6.6074 0.676855 5.52091C1.12577 4.43443 1.78474 3.44725 2.616 2.616C3.44725 1.78474 4.43443 1.12577 5.52091 0.676855C6.6074 0.227945 7.77181 -0.00206606 8.94738 1.39825e-05H27.8948C32.8474 1.39825e-05 36.8421 3.99475 36.8421 8.94738V10.5263C36.8421 10.8719 36.7741 11.2141 36.6418 11.5334C36.5096 11.8527 36.3157 12.1428 36.0713 12.3871C35.827 12.6315 35.5369 12.8253 35.2176 12.9576C34.8983 13.0898 34.5561 13.1579 34.2105 13.1579C33.865 13.1579 33.5228 13.0898 33.2035 12.9576C32.8842 12.8253 32.5941 12.6315 32.3497 12.3871C32.1054 12.1428 31.9115 11.8527 31.7793 11.5334C31.647 11.2141 31.579 10.8719 31.579 10.5263V8.94738C31.579 6.90001 29.9421 5.26317 27.8948 5.26317H8.94738ZM20.2707 20.2709C19.0863 21.4553 18.4209 23.0618 18.4209 24.7368V43.6842C18.4209 45.3593 19.0863 46.9657 20.2707 48.1501C21.4552 49.3346 23.0616 50 24.7367 50H43.6841C45.3591 50 46.9656 49.3346 48.15 48.1501C49.3344 46.9657 49.9998 45.3593 49.9998 43.6842V24.7368C49.9998 23.0618 49.3344 21.4553 48.15 20.2709C46.9656 19.0865 45.3591 18.4211 43.6841 18.4211H24.7367C23.0616 18.4211 21.4552 19.0865 20.2707 20.2709Z" fill="black"/>
</svg>
