<svg width="28" height="23" viewBox="0 0 28 23" fill="none" xmlns="http://www.w3.org/2000/svg">
<path d="M3.23801 17.958C4.09461 17.958 4.78901 17.2635 4.78901 16.407C4.78901 15.5504 4.09461 14.856 3.23801 14.856C2.38142 14.856 1.68701 15.5504 1.68701 16.407C1.68701 17.2635 2.38142 17.958 3.23801 17.958Z" fill="url(#paint0_radial_25_175)"/>
<path d="M24.4919 17.9702C25.3485 17.9702 26.0429 17.2758 26.0429 16.4192C26.0429 15.5626 25.3485 14.8682 24.4919 14.8682C23.6353 14.8682 22.9409 15.5626 22.9409 16.4192C22.9409 17.2758 23.6353 17.9702 24.4919 17.9702Z" fill="url(#paint1_radial_25_175)"/>
<path d="M24.4919 17.9702C25.3485 17.9702 26.0429 17.2758 26.0429 16.4192C26.0429 15.5626 25.3485 14.8682 24.4919 14.8682C23.6353 14.8682 22.9409 15.5626 22.9409 16.4192C22.9409 17.2758 23.6353 17.9702 24.4919 17.9702Z" fill="url(#paint2_radial_25_175)"/>
<path d="M6.86696 6.23899C6.26696 7.13899 5.82996 8.36399 5.67896 8.83299L8.02295 10.52L9.81296 8.25399C9.49348 7.76941 9.16 7.29422 8.81296 6.82899C8.53085 6.47488 8.23044 6.13575 7.91295 5.81299L6.86696 6.23899Z" fill="url(#paint3_radial_25_175)"/>
<path d="M6.86696 6.23899C6.26696 7.13899 5.82996 8.36399 5.67896 8.83299L8.02295 10.52L9.81296 8.25399C9.49348 7.76941 9.16 7.29422 8.81296 6.82899C8.53085 6.47488 8.23044 6.13575 7.91295 5.81299L6.86696 6.23899Z" fill="url(#paint4_radial_25_175)"/>
<path d="M20.851 6.23899C21.451 7.13899 21.888 8.36399 22.039 8.83299L19.695 10.52L17.905 8.25399C18.117 7.92899 18.618 7.20399 18.905 6.82899C19.192 6.45399 19.627 5.99499 19.805 5.81299L20.851 6.23899Z" fill="url(#paint5_radial_25_175)"/>
<path d="M20.851 6.23899C21.451 7.13899 21.888 8.36399 22.039 8.83299L19.695 10.52L17.905 8.25399C18.117 7.92899 18.618 7.20399 18.905 6.82899C19.192 6.45399 19.627 5.99499 19.805 5.81299L20.851 6.23899Z" fill="url(#paint6_radial_25_175)"/>
<path d="M20.851 6.23899C21.451 7.13899 21.888 8.36399 22.039 8.83299L19.695 10.52L17.905 8.25399C18.117 7.92899 18.618 7.20399 18.905 6.82899C19.192 6.45399 19.627 5.99499 19.805 5.81299L20.851 6.23899Z" fill="url(#paint7_radial_25_175)"/>
<g filter="url(#filter0_ii_25_175)">
<path d="M0.983887 6.30879L4.08989 21.4678C4.1641 21.829 4.36079 22.1535 4.64669 22.3863C4.93259 22.6192 5.29015 22.7462 5.65889 22.7458H22.0589C22.4277 22.7459 22.7853 22.6185 23.071 22.3853C23.3567 22.152 23.5531 21.8272 23.6269 21.4658L26.7329 6.30779L25.7409 5.82379C24.2569 6.90179 21.1489 9.11279 20.3469 9.59679C19.7069 9.98279 19.1189 9.35379 18.9969 9.17479C17.8799 7.53479 16.1749 5.14679 15.5369 4.30779C14.8849 3.44779 14.1469 3.02379 13.8579 2.98779C13.5689 3.02379 12.8309 3.44779 12.1779 4.30779C11.5409 5.14679 9.83689 7.53479 8.71889 9.17479C8.59689 9.35379 8.00889 9.98379 7.36889 9.59679C6.56689 9.11279 3.45889 6.90179 1.97489 5.82379L0.983887 6.30879Z" fill="url(#paint8_linear_25_175)"/>
<path d="M0.983887 6.30879L4.08989 21.4678C4.1641 21.829 4.36079 22.1535 4.64669 22.3863C4.93259 22.6192 5.29015 22.7462 5.65889 22.7458H22.0589C22.4277 22.7459 22.7853 22.6185 23.071 22.3853C23.3567 22.152 23.5531 21.8272 23.6269 21.4658L26.7329 6.30779L25.7409 5.82379C24.2569 6.90179 21.1489 9.11279 20.3469 9.59679C19.7069 9.98279 19.1189 9.35379 18.9969 9.17479C17.8799 7.53479 16.1749 5.14679 15.5369 4.30779C14.8849 3.44779 14.1469 3.02379 13.8579 2.98779C13.5689 3.02379 12.8309 3.44779 12.1779 4.30779C11.5409 5.14679 9.83689 7.53479 8.71889 9.17479C8.59689 9.35379 8.00889 9.98379 7.36889 9.59679C6.56689 9.11279 3.45889 6.90179 1.97489 5.82379L0.983887 6.30879Z" fill="url(#paint9_radial_25_175)"/>
</g>
<path d="M0.983887 6.30879L4.08989 21.4678C4.1641 21.829 4.36079 22.1535 4.64669 22.3863C4.93259 22.6192 5.29015 22.7462 5.65889 22.7458H22.0589C22.4277 22.7459 22.7853 22.6185 23.071 22.3853C23.3567 22.152 23.5531 21.8272 23.6269 21.4658L26.7329 6.30779L25.7409 5.82379C24.2569 6.90179 21.1489 9.11279 20.3469 9.59679C19.7069 9.98279 19.1189 9.35379 18.9969 9.17479C17.8799 7.53479 16.1749 5.14679 15.5369 4.30779C14.8849 3.44779 14.1469 3.02379 13.8579 2.98779C13.5689 3.02379 12.8309 3.44779 12.1779 4.30779C11.5409 5.14679 9.83689 7.53479 8.71889 9.17479C8.59689 9.35379 8.00889 9.98379 7.36889 9.59679C6.56689 9.11279 3.45889 6.90179 1.97489 5.82379L0.983887 6.30879Z" fill="url(#paint10_linear_25_175)"/>
<path d="M0.983887 6.30879L4.08989 21.4678C4.1641 21.829 4.36079 22.1535 4.64669 22.3863C4.93259 22.6192 5.29015 22.7462 5.65889 22.7458H22.0589C22.4277 22.7459 22.7853 22.6185 23.071 22.3853C23.3567 22.152 23.5531 21.8272 23.6269 21.4658L26.7329 6.30779L25.7409 5.82379C24.2569 6.90179 21.1489 9.11279 20.3469 9.59679C19.7069 9.98279 19.1189 9.35379 18.9969 9.17479C17.8799 7.53479 16.1749 5.14679 15.5369 4.30779C14.8849 3.44779 14.1469 3.02379 13.8579 2.98779C13.5689 3.02379 12.8309 3.44779 12.1779 4.30779C11.5409 5.14679 9.83689 7.53479 8.71889 9.17479C8.59689 9.35379 8.00889 9.98379 7.36889 9.59679C6.56689 9.11279 3.45889 6.90179 1.97489 5.82379L0.983887 6.30879Z" fill="url(#paint11_linear_25_175)"/>
<path d="M0.983887 6.30879L4.08989 21.4678C4.1641 21.829 4.36079 22.1535 4.64669 22.3863C4.93259 22.6192 5.29015 22.7462 5.65889 22.7458H22.0589C22.4277 22.7459 22.7853 22.6185 23.071 22.3853C23.3567 22.152 23.5531 21.8272 23.6269 21.4658L26.7329 6.30779L25.7409 5.82379C24.2569 6.90179 21.1489 9.11279 20.3469 9.59679C19.7069 9.98279 19.1189 9.35379 18.9969 9.17479C17.8799 7.53479 16.1749 5.14679 15.5369 4.30779C14.8849 3.44779 14.1469 3.02379 13.8579 2.98779C13.5689 3.02379 12.8309 3.44779 12.1779 4.30779C11.5409 5.14679 9.83689 7.53479 8.71889 9.17479C8.59689 9.35379 8.00889 9.98379 7.36889 9.59679C6.56689 9.11279 3.45889 6.90179 1.97489 5.82379L0.983887 6.30879Z" fill="url(#paint12_linear_25_175)"/>
<path d="M0.983887 6.30879L4.08989 21.4678C4.1641 21.829 4.36079 22.1535 4.64669 22.3863C4.93259 22.6192 5.29015 22.7462 5.65889 22.7458H22.0589C22.4277 22.7459 22.7853 22.6185 23.071 22.3853C23.3567 22.152 23.5531 21.8272 23.6269 21.4658L26.7329 6.30779L25.7409 5.82379C24.2569 6.90179 21.1489 9.11279 20.3469 9.59679C19.7069 9.98279 19.1189 9.35379 18.9969 9.17479C17.8799 7.53479 16.1749 5.14679 15.5369 4.30779C14.8849 3.44779 14.1469 3.02379 13.8579 2.98779C13.5689 3.02379 12.8309 3.44779 12.1779 4.30779C11.5409 5.14679 9.83689 7.53479 8.71889 9.17479C8.59689 9.35379 8.00889 9.98379 7.36889 9.59679C6.56689 9.11279 3.45889 6.90179 1.97489 5.82379L0.983887 6.30879Z" fill="url(#paint13_radial_25_175)"/>
<path d="M0.983887 6.30879L4.08989 21.4678C4.1641 21.829 4.36079 22.1535 4.64669 22.3863C4.93259 22.6192 5.29015 22.7462 5.65889 22.7458H22.0589C22.4277 22.7459 22.7853 22.6185 23.071 22.3853C23.3567 22.152 23.5531 21.8272 23.6269 21.4658L26.7329 6.30779L25.7409 5.82379C24.2569 6.90179 21.1489 9.11279 20.3469 9.59679C19.7069 9.98279 19.1189 9.35379 18.9969 9.17479C17.8799 7.53479 16.1749 5.14679 15.5369 4.30779C14.8849 3.44779 14.1469 3.02379 13.8579 2.98779C13.5689 3.02379 12.8309 3.44779 12.1779 4.30779C11.5409 5.14679 9.83689 7.53479 8.71889 9.17479C8.59689 9.35379 8.00889 9.98379 7.36889 9.59679C6.56689 9.11279 3.45889 6.90179 1.97489 5.82379L0.983887 6.30879Z" fill="url(#paint14_radial_25_175)"/>
<path d="M0.983887 6.30879L4.08989 21.4678C4.1641 21.829 4.36079 22.1535 4.64669 22.3863C4.93259 22.6192 5.29015 22.7462 5.65889 22.7458H22.0589C22.4277 22.7459 22.7853 22.6185 23.071 22.3853C23.3567 22.152 23.5531 21.8272 23.6269 21.4658L26.7329 6.30779L25.7409 5.82379C24.2569 6.90179 21.1489 9.11279 20.3469 9.59679C19.7069 9.98279 19.1189 9.35379 18.9969 9.17479C17.8799 7.53479 16.1749 5.14679 15.5369 4.30779C14.8849 3.44779 14.1469 3.02379 13.8579 2.98779C13.5689 3.02379 12.8309 3.44779 12.1779 4.30779C11.5409 5.14679 9.83689 7.53479 8.71889 9.17479C8.59689 9.35379 8.00889 9.98379 7.36889 9.59679C6.56689 9.11279 3.45889 6.90179 1.97489 5.82379L0.983887 6.30879Z" fill="url(#paint15_radial_25_175)"/>
<g filter="url(#filter1_di_25_175)">
<path d="M21.6389 16.899C21.3729 17.713 20.5209 18.121 19.7069 17.856C19.0929 17.606 18.8279 16.905 19.0929 16.091C19.3579 15.276 20.1929 14.809 20.6989 14.973C21.5129 15.238 21.9029 16.084 21.6389 16.899Z" fill="url(#paint16_radial_25_175)"/>
<path d="M21.6389 16.899C21.3729 17.713 20.5209 18.121 19.7069 17.856C19.0929 17.606 18.8279 16.905 19.0929 16.091C19.3579 15.276 20.1929 14.809 20.6989 14.973C21.5129 15.238 21.9029 16.084 21.6389 16.899Z" fill="url(#paint17_radial_25_175)"/>
</g>
<g filter="url(#filter2_di_25_175)">
<path d="M6.15591 16.899C6.42091 17.713 7.27291 18.121 8.08791 17.856C8.70091 17.606 8.96591 16.905 8.70091 16.091C8.43591 15.276 7.60091 14.809 7.09591 14.973C6.28091 15.238 5.89091 16.084 6.15591 16.899Z" fill="url(#paint18_radial_25_175)"/>
<path d="M6.15591 16.899C6.42091 17.713 7.27291 18.121 8.08791 17.856C8.70091 17.606 8.96591 16.905 8.70091 16.091C8.43591 15.276 7.60091 14.809 7.09591 14.973C6.28091 15.238 5.89091 16.084 6.15591 16.899Z" fill="url(#paint19_radial_25_175)"/>
</g>
<path d="M2.781 6.08092C2.781 6.4497 2.6345 6.80338 2.37373 7.06415C2.11296 7.32492 1.75928 7.47142 1.3905 7.47142C1.02172 7.47142 0.668037 7.32492 0.407268 7.06415C0.146499 6.80338 0 6.4497 0 6.08092C0 5.71227 0.146446 5.35872 0.407122 5.09804C0.667797 4.83736 1.02135 4.69092 1.39 4.69092C1.75865 4.69092 2.1122 4.83736 2.37288 5.09804C2.63355 5.35872 2.781 5.71227 2.781 6.08092Z" fill="url(#paint20_radial_25_175)"/>
<path d="M2.781 6.08092C2.781 6.4497 2.6345 6.80338 2.37373 7.06415C2.11296 7.32492 1.75928 7.47142 1.3905 7.47142C1.02172 7.47142 0.668037 7.32492 0.407268 7.06415C0.146499 6.80338 0 6.4497 0 6.08092C0 5.71227 0.146446 5.35872 0.407122 5.09804C0.667797 4.83736 1.02135 4.69092 1.39 4.69092C1.75865 4.69092 2.1122 4.83736 2.37288 5.09804C2.63355 5.35872 2.781 5.71227 2.781 6.08092Z" fill="url(#paint21_radial_25_175)"/>
<path d="M2.781 6.08092C2.781 6.4497 2.6345 6.80338 2.37373 7.06415C2.11296 7.32492 1.75928 7.47142 1.3905 7.47142C1.02172 7.47142 0.668037 7.32492 0.407268 7.06415C0.146499 6.80338 0 6.4497 0 6.08092C0 5.71227 0.146446 5.35872 0.407122 5.09804C0.667797 4.83736 1.02135 4.69092 1.39 4.69092C1.75865 4.69092 2.1122 4.83736 2.37288 5.09804C2.63355 5.35872 2.781 5.71227 2.781 6.08092Z" fill="url(#paint22_radial_25_175)"/>
<path d="M2.781 6.08092C2.781 6.4497 2.6345 6.80338 2.37373 7.06415C2.11296 7.32492 1.75928 7.47142 1.3905 7.47142C1.02172 7.47142 0.668037 7.32492 0.407268 7.06415C0.146499 6.80338 0 6.4497 0 6.08092C0 5.71227 0.146446 5.35872 0.407122 5.09804C0.667797 4.83736 1.02135 4.69092 1.39 4.69092C1.75865 4.69092 2.1122 4.83736 2.37288 5.09804C2.63355 5.35872 2.781 5.71227 2.781 6.08092Z" fill="url(#paint23_radial_25_175)"/>
<path d="M8.13896 6.33595C8.40446 6.18043 8.61085 5.94121 8.72578 5.65578C8.84071 5.37036 8.85769 5.05487 8.77405 4.75875C8.69042 4.46264 8.51089 4.20265 8.26362 4.01954C8.01634 3.83642 7.7153 3.74052 7.40767 3.74688C7.10004 3.75324 6.80322 3.86149 6.56372 4.05466C6.32422 4.24784 6.15559 4.51503 6.08426 4.81434C6.01292 5.11365 6.04292 5.42817 6.16955 5.70861C6.29617 5.98904 6.51227 6.21953 6.78396 6.36395C6.91789 6.31261 7.06475 6.3056 7.20296 6.34395C7.41696 6.40595 7.76896 6.48395 8.13996 6.33595" fill="url(#paint24_radial_25_175)"/>
<path d="M8.13896 6.33595C8.40446 6.18043 8.61085 5.94121 8.72578 5.65578C8.84071 5.37036 8.85769 5.05487 8.77405 4.75875C8.69042 4.46264 8.51089 4.20265 8.26362 4.01954C8.01634 3.83642 7.7153 3.74052 7.40767 3.74688C7.10004 3.75324 6.80322 3.86149 6.56372 4.05466C6.32422 4.24784 6.15559 4.51503 6.08426 4.81434C6.01292 5.11365 6.04292 5.42817 6.16955 5.70861C6.29617 5.98904 6.51227 6.21953 6.78396 6.36395C6.91789 6.31261 7.06475 6.3056 7.20296 6.34395C7.41696 6.40595 7.76896 6.48395 8.13996 6.33595" fill="url(#paint25_radial_25_175)"/>
<path d="M8.13896 6.33595C8.40446 6.18043 8.61085 5.94121 8.72578 5.65578C8.84071 5.37036 8.85769 5.05487 8.77405 4.75875C8.69042 4.46264 8.51089 4.20265 8.26362 4.01954C8.01634 3.83642 7.7153 3.74052 7.40767 3.74688C7.10004 3.75324 6.80322 3.86149 6.56372 4.05466C6.32422 4.24784 6.15559 4.51503 6.08426 4.81434C6.01292 5.11365 6.04292 5.42817 6.16955 5.70861C6.29617 5.98904 6.51227 6.21953 6.78396 6.36395C6.91789 6.31261 7.06475 6.3056 7.20296 6.34395C7.41696 6.40595 7.76896 6.48395 8.13996 6.33595" fill="url(#paint26_radial_25_175)"/>
<path d="M8.13896 6.33595C8.40446 6.18043 8.61085 5.94121 8.72578 5.65578C8.84071 5.37036 8.85769 5.05487 8.77405 4.75875C8.69042 4.46264 8.51089 4.20265 8.26362 4.01954C8.01634 3.83642 7.7153 3.74052 7.40767 3.74688C7.10004 3.75324 6.80322 3.86149 6.56372 4.05466C6.32422 4.24784 6.15559 4.51503 6.08426 4.81434C6.01292 5.11365 6.04292 5.42817 6.16955 5.70861C6.29617 5.98904 6.51227 6.21953 6.78396 6.36395C6.91789 6.31261 7.06475 6.3056 7.20296 6.34395C7.41696 6.40595 7.76896 6.48395 8.13996 6.33595" fill="url(#paint27_radial_25_175)"/>
<g filter="url(#filter3_i_25_175)">
<path d="M19.579 6.33595C19.3135 6.18043 19.1071 5.94121 18.9922 5.65578C18.8773 5.37036 18.8603 5.05487 18.9439 4.75875C19.0276 4.46264 19.2071 4.20265 19.4544 4.01954C19.7016 3.83642 20.0027 3.74052 20.3103 3.74688C20.6179 3.75324 20.9148 3.86149 21.1543 4.05466C21.3938 4.24784 21.5624 4.51503 21.6337 4.81434C21.7051 5.11365 21.6751 5.42817 21.5484 5.70861C21.4218 5.98904 21.2057 6.21953 20.934 6.36395C20.8001 6.31261 20.6532 6.3056 20.515 6.34395C20.301 6.40595 19.95 6.48395 19.579 6.33595Z" fill="url(#paint28_radial_25_175)"/>
<path d="M19.579 6.33595C19.3135 6.18043 19.1071 5.94121 18.9922 5.65578C18.8773 5.37036 18.8603 5.05487 18.9439 4.75875C19.0276 4.46264 19.2071 4.20265 19.4544 4.01954C19.7016 3.83642 20.0027 3.74052 20.3103 3.74688C20.6179 3.75324 20.9148 3.86149 21.1543 4.05466C21.3938 4.24784 21.5624 4.51503 21.6337 4.81434C21.7051 5.11365 21.6751 5.42817 21.5484 5.70861C21.4218 5.98904 21.2057 6.21953 20.934 6.36395C20.8001 6.31261 20.6532 6.3056 20.515 6.34395C20.301 6.40595 19.95 6.48395 19.579 6.33595Z" fill="url(#paint29_radial_25_175)"/>
</g>
<g filter="url(#filter4_di_25_175)">
<path d="M13.897 18.9502C15.26 18.9502 16.365 17.8452 16.365 16.4822C16.365 15.1191 15.26 14.0142 13.897 14.0142C12.5339 14.0142 11.429 15.1191 11.429 16.4822C11.429 17.8452 12.5339 18.9502 13.897 18.9502Z" fill="url(#paint30_radial_25_175)"/>
</g>
<g filter="url(#filter5_f_25_175)">
<path d="M14.0691 3.51084C14.2421 3.49084 14.6821 3.57984 15.0691 4.10484C15.4571 4.62984 17.8151 7.98984 18.9451 9.60484C19.1641 9.94284 19.8111 10.4768 20.6481 9.90184C21.4851 9.32684 24.1791 7.37684 25.1951 6.69984" stroke="url(#paint31_linear_25_175)" stroke-width="0.15"/>
<path d="M14.0691 3.51084C14.2421 3.49084 14.6821 3.57984 15.0691 4.10484C15.4571 4.62984 17.8151 7.98984 18.9451 9.60484C19.1641 9.94284 19.8111 10.4768 20.6481 9.90184C21.4851 9.32684 24.1791 7.37684 25.1951 6.69984" stroke="url(#paint32_radial_25_175)" stroke-width="0.15"/>
</g>
<path d="M13.855 3.602C14.8496 3.602 15.656 2.79567 15.656 1.801C15.656 0.806335 14.8496 0 13.855 0C12.8603 0 12.054 0.806335 12.054 1.801C12.054 2.79567 12.8603 3.602 13.855 3.602Z" fill="url(#paint33_radial_25_175)"/>
<path d="M13.855 3.602C14.8496 3.602 15.656 2.79567 15.656 1.801C15.656 0.806335 14.8496 0 13.855 0C12.8603 0 12.054 0.806335 12.054 1.801C12.054 2.79567 12.8603 3.602 13.855 3.602Z" fill="url(#paint34_radial_25_175)"/>
<path d="M13.855 3.602C14.8496 3.602 15.656 2.79567 15.656 1.801C15.656 0.806335 14.8496 0 13.855 0C12.8603 0 12.054 0.806335 12.054 1.801C12.054 2.79567 12.8603 3.602 13.855 3.602Z" fill="url(#paint35_radial_25_175)"/>
<path d="M13.855 3.602C14.8496 3.602 15.656 2.79567 15.656 1.801C15.656 0.806335 14.8496 0 13.855 0C12.8603 0 12.054 0.806335 12.054 1.801C12.054 2.79567 12.8603 3.602 13.855 3.602Z" fill="url(#paint36_radial_25_175)"/>
<path d="M27.781 6.08092C27.781 6.4497 27.6345 6.80338 27.3737 7.06415C27.113 7.32492 26.7593 7.47142 26.3905 7.47142C26.0217 7.47142 25.668 7.32492 25.4073 7.06415C25.1465 6.80338 25 6.4497 25 6.08092C25 5.71227 25.1464 5.35872 25.4071 5.09804C25.6678 4.83736 26.0213 4.69092 26.39 4.69092C26.7587 4.69092 27.1122 4.83736 27.3729 5.09804C27.6336 5.35872 27.78 5.71227 27.78 6.08092" fill="url(#paint37_radial_25_175)"/>
<path d="M27.781 6.08092C27.781 6.4497 27.6345 6.80338 27.3737 7.06415C27.113 7.32492 26.7593 7.47142 26.3905 7.47142C26.0217 7.47142 25.668 7.32492 25.4073 7.06415C25.1465 6.80338 25 6.4497 25 6.08092C25 5.71227 25.1464 5.35872 25.4071 5.09804C25.6678 4.83736 26.0213 4.69092 26.39 4.69092C26.7587 4.69092 27.1122 4.83736 27.3729 5.09804C27.6336 5.35872 27.78 5.71227 27.78 6.08092" fill="url(#paint38_radial_25_175)"/>
<path d="M27.781 6.08092C27.781 6.4497 27.6345 6.80338 27.3737 7.06415C27.113 7.32492 26.7593 7.47142 26.3905 7.47142C26.0217 7.47142 25.668 7.32492 25.4073 7.06415C25.1465 6.80338 25 6.4497 25 6.08092C25 5.71227 25.1464 5.35872 25.4071 5.09804C25.6678 4.83736 26.0213 4.69092 26.39 4.69092C26.7587 4.69092 27.1122 4.83736 27.3729 5.09804C27.6336 5.35872 27.78 5.71227 27.78 6.08092" fill="url(#paint39_radial_25_175)"/>
<path d="M27.781 6.08092C27.781 6.4497 27.6345 6.80338 27.3737 7.06415C27.113 7.32492 26.7593 7.47142 26.3905 7.47142C26.0217 7.47142 25.668 7.32492 25.4073 7.06415C25.1465 6.80338 25 6.4497 25 6.08092C25 5.71227 25.1464 5.35872 25.4071 5.09804C25.6678 4.83736 26.0213 4.69092 26.39 4.69092C26.7587 4.69092 27.1122 4.83736 27.3729 5.09804C27.6336 5.35872 27.78 5.71227 27.78 6.08092" fill="url(#paint40_radial_25_175)"/>
<defs>
<filter id="filter0_ii_25_175" x="0.583887" y="2.88779" width="26.549" height="19.8578" filterUnits="userSpaceOnUse" color-interpolation-filters="sRGB">
<feFlood flood-opacity="0" result="BackgroundImageFix"/>
<feBlend mode="normal" in="SourceGraphic" in2="BackgroundImageFix" result="shape"/>
<feColorMatrix in="SourceAlpha" type="matrix" values="0 0 0 0 0 0 0 0 0 0 0 0 0 0 0 0 0 0 127 0" result="hardAlpha"/>
<feOffset dx="0.4" dy="-0.1"/>
<feGaussianBlur stdDeviation="0.25"/>
<feComposite in2="hardAlpha" operator="arithmetic" k2="-1" k3="1"/>
<feColorMatrix type="matrix" values="0 0 0 0 0.803922 0 0 0 0 0.580392 0 0 0 0 0.262745 0 0 0 1 0"/>
<feBlend mode="normal" in2="shape" result="effect1_innerShadow_25_175"/>
<feColorMatrix in="SourceAlpha" type="matrix" values="0 0 0 0 0 0 0 0 0 0 0 0 0 0 0 0 0 0 127 0" result="hardAlpha"/>
<feOffset dx="-0.4" dy="-0.1"/>
<feGaussianBlur stdDeviation="0.25"/>
<feComposite in2="hardAlpha" operator="arithmetic" k2="-1" k3="1"/>
<feColorMatrix type="matrix" values="0 0 0 0 0.894118 0 0 0 0 0.686275 0 0 0 0 0.301961 0 0 0 1 0"/>
<feBlend mode="normal" in2="effect1_innerShadow_25_175" result="effect2_innerShadow_25_175"/>
</filter>
<filter id="filter1_di_25_175" x="17.9905" y="14.4404" width="4.23022" height="4.49609" filterUnits="userSpaceOnUse" color-interpolation-filters="sRGB">
<feFlood flood-opacity="0" result="BackgroundImageFix"/>
<feColorMatrix in="SourceAlpha" type="matrix" values="0 0 0 0 0 0 0 0 0 0 0 0 0 0 0 0 0 0 127 0" result="hardAlpha"/>
<feOffset dx="-0.25" dy="0.25"/>
<feGaussianBlur stdDeviation="0.375"/>
<feComposite in2="hardAlpha" operator="out"/>
<feColorMatrix type="matrix" values="0 0 0 0 1 0 0 0 0 0.54902 0 0 0 0 0.305882 0 0 0 1 0"/>
<feBlend mode="normal" in2="BackgroundImageFix" result="effect1_dropShadow_25_175"/>
<feBlend mode="normal" in="SourceGraphic" in2="effect1_dropShadow_25_175" result="shape"/>
<feColorMatrix in="SourceAlpha" type="matrix" values="0 0 0 0 0 0 0 0 0 0 0 0 0 0 0 0 0 0 127 0" result="hardAlpha"/>
<feOffset dx="0.15" dy="-0.15"/>
<feGaussianBlur stdDeviation="0.25"/>
<feComposite in2="hardAlpha" operator="arithmetic" k2="-1" k3="1"/>
<feColorMatrix type="matrix" values="0 0 0 0 0.984314 0 0 0 0 0.219608 0 0 0 0 0.254902 0 0 0 1 0"/>
<feBlend mode="normal" in2="shape" result="effect2_innerShadow_25_175"/>
</filter>
<filter id="filter2_di_25_175" x="5.07349" y="14.4404" width="4.22974" height="4.49609" filterUnits="userSpaceOnUse" color-interpolation-filters="sRGB">
<feFlood flood-opacity="0" result="BackgroundImageFix"/>
<feColorMatrix in="SourceAlpha" type="matrix" values="0 0 0 0 0 0 0 0 0 0 0 0 0 0 0 0 0 0 127 0" result="hardAlpha"/>
<feOffset dx="-0.25" dy="0.25"/>
<feGaussianBlur stdDeviation="0.375"/>
<feComposite in2="hardAlpha" operator="out"/>
<feColorMatrix type="matrix" values="0 0 0 0 0.905882 0 0 0 0 0.439216 0 0 0 0 0.278431 0 0 0 1 0"/>
<feBlend mode="normal" in2="BackgroundImageFix" result="effect1_dropShadow_25_175"/>
<feBlend mode="normal" in="SourceGraphic" in2="effect1_dropShadow_25_175" result="shape"/>
<feColorMatrix in="SourceAlpha" type="matrix" values="0 0 0 0 0 0 0 0 0 0 0 0 0 0 0 0 0 0 127 0" result="hardAlpha"/>
<feOffset dx="0.3" dy="0.3"/>
<feGaussianBlur stdDeviation="0.3"/>
<feComposite in2="hardAlpha" operator="arithmetic" k2="-1" k3="1"/>
<feColorMatrix type="matrix" values="0 0 0 0 0.796078 0 0 0 0 0.141176 0 0 0 0 0.223529 0 0 0 1 0"/>
<feBlend mode="normal" in2="shape" result="effect2_innerShadow_25_175"/>
</filter>
<filter id="filter3_i_25_175" x="18.8916" y="3.74658" width="2.78003" height="2.67432" filterUnits="userSpaceOnUse" color-interpolation-filters="sRGB">
<feFlood flood-opacity="0" result="BackgroundImageFix"/>
<feBlend mode="normal" in="SourceGraphic" in2="BackgroundImageFix" result="shape"/>
<feColorMatrix in="SourceAlpha" type="matrix" values="0 0 0 0 0 0 0 0 0 0 0 0 0 0 0 0 0 0 127 0" result="hardAlpha"/>
<feOffset/>
<feGaussianBlur stdDeviation="0.125"/>
<feComposite in2="hardAlpha" operator="arithmetic" k2="-1" k3="1"/>
<feColorMatrix type="matrix" values="0 0 0 0 0.756863 0 0 0 0 0.619608 0 0 0 0 0.321569 0 0 0 1 0"/>
<feBlend mode="normal" in2="shape" result="effect1_innerShadow_25_175"/>
</filter>
<filter id="filter4_di_25_175" x="9.67896" y="13.2642" width="7.43604" height="7.43604" filterUnits="userSpaceOnUse" color-interpolation-filters="sRGB">
<feFlood flood-opacity="0" result="BackgroundImageFix"/>
<feColorMatrix in="SourceAlpha" type="matrix" values="0 0 0 0 0 0 0 0 0 0 0 0 0 0 0 0 0 0 127 0" result="hardAlpha"/>
<feOffset dx="-0.5" dy="0.5"/>
<feGaussianBlur stdDeviation="0.625"/>
<feComposite in2="hardAlpha" operator="out"/>
<feColorMatrix type="matrix" values="0 0 0 0 0.937255 0 0 0 0 0.443137 0 0 0 0 0.376471 0 0 0 1 0"/>
<feBlend mode="normal" in2="BackgroundImageFix" result="effect1_dropShadow_25_175"/>
<feBlend mode="normal" in="SourceGraphic" in2="effect1_dropShadow_25_175" result="shape"/>
<feColorMatrix in="SourceAlpha" type="matrix" values="0 0 0 0 0 0 0 0 0 0 0 0 0 0 0 0 0 0 127 0" result="hardAlpha"/>
<feOffset dx="0.75" dy="-0.75"/>
<feGaussianBlur stdDeviation="0.75"/>
<feComposite in2="hardAlpha" operator="arithmetic" k2="-1" k3="1"/>
<feColorMatrix type="matrix" values="0 0 0 0 0.313726 0 0 0 0 0.384314 0 0 0 0 1 0 0 0 1 0"/>
<feBlend mode="normal" in2="shape" result="effect2_innerShadow_25_175"/>
</filter>
<filter id="filter5_f_25_175" x="13.9105" y="3.28311" width="11.476" height="7.09785" filterUnits="userSpaceOnUse" color-interpolation-filters="sRGB">
<feFlood flood-opacity="0" result="BackgroundImageFix"/>
<feBlend mode="normal" in="SourceGraphic" in2="BackgroundImageFix" result="shape"/>
<feGaussianBlur stdDeviation="0.075" result="effect1_foregroundBlur_25_175"/>
</filter>
<radialGradient id="paint0_radial_25_175" cx="0" cy="0" r="1" gradientUnits="userSpaceOnUse" gradientTransform="translate(3.23762 17.4031) rotate(-103.54) scale(1.75182 2.1567)">
<stop stop-color="#395DE0"/>
<stop offset="1" stop-color="#2C68A3"/>
</radialGradient>
<radialGradient id="paint1_radial_25_175" cx="0" cy="0" r="1" gradientUnits="userSpaceOnUse" gradientTransform="translate(25.4525 15.1383) rotate(108.743) scale(2.99062)">
<stop offset="0.249" stop-color="#3DB3F3"/>
<stop offset="1" stop-color="#5B73F4"/>
</radialGradient>
<radialGradient id="paint2_radial_25_175" cx="0" cy="0" r="1" gradientUnits="userSpaceOnUse" gradientTransform="translate(25.9509 15.8102) rotate(161.162) scale(1.4033 0.889716)">
<stop offset="0.258" stop-color="#5FBEFF"/>
<stop offset="1" stop-color="#5FBEFF" stop-opacity="0"/>
</radialGradient>
<radialGradient id="paint3_radial_25_175" cx="0" cy="0" r="1" gradientUnits="userSpaceOnUse" gradientTransform="translate(6.51496 7.71599) rotate(15.9454) scale(3.18505 7.94975)">
<stop stop-color="#FBC96E"/>
<stop offset="1" stop-color="#FAC567"/>
</radialGradient>
<radialGradient id="paint4_radial_25_175" cx="0" cy="0" r="1" gradientUnits="userSpaceOnUse" gradientTransform="translate(8.38996 8.40299) rotate(-156.753) scale(2.41482 7.26267)">
<stop offset="0.765" stop-color="#D89F3A" stop-opacity="0"/>
<stop offset="0.911" stop-color="#DAA139"/>
</radialGradient>
<radialGradient id="paint5_radial_25_175" cx="0" cy="0" r="1" gradientUnits="userSpaceOnUse" gradientTransform="translate(21.7342 9.65236) rotate(-125.455) scale(2.53202 2.59683)">
<stop offset="0.254" stop-color="#BF812A"/>
<stop offset="1" stop-color="#CE9333"/>
</radialGradient>
<radialGradient id="paint6_radial_25_175" cx="0" cy="0" r="1" gradientUnits="userSpaceOnUse" gradientTransform="translate(19.781 8.41799) rotate(-23.0909) scale(2.19118 5.70837)">
<stop offset="0.734" stop-color="#E9BB61" stop-opacity="0"/>
<stop offset="0.929" stop-color="#E9BB61"/>
</radialGradient>
<radialGradient id="paint7_radial_25_175" cx="0" cy="0" r="1" gradientUnits="userSpaceOnUse" gradientTransform="translate(21.0787 9.04277) rotate(-142.922) scale(3.4469 5.81507)">
<stop offset="0.773" stop-color="#C18739" stop-opacity="0"/>
<stop offset="0.948" stop-color="#C18739"/>
</radialGradient>
<linearGradient id="paint8_linear_25_175" x1="21.0649" y1="14.7358" x2="3.39889" y2="18.8558" gradientUnits="userSpaceOnUse">
<stop stop-color="#FFBC5D"/>
<stop offset="0.304" stop-color="#FCAD6A"/>
<stop offset="1" stop-color="#CB7547"/>
</linearGradient>
<radialGradient id="paint9_radial_25_175" cx="0" cy="0" r="1" gradientUnits="userSpaceOnUse" gradientTransform="translate(9.99189 26.0148) rotate(-69.4212) scale(11.0026 21.4146)">
<stop stop-color="#F67B4E"/>
<stop offset="1" stop-color="#F67B4E" stop-opacity="0"/>
</radialGradient>
<linearGradient id="paint10_linear_25_175" x1="3.13989" y1="18.4338" x2="5.85889" y2="17.8718" gradientUnits="userSpaceOnUse">
<stop stop-color="#C2794C"/>
<stop offset="1" stop-color="#E07648" stop-opacity="0"/>
</linearGradient>
<linearGradient id="paint11_linear_25_175" x1="24.4839" y1="20.1838" x2="19.8589" y2="19.1218" gradientUnits="userSpaceOnUse">
<stop offset="0.129" stop-color="#FFBB5B"/>
<stop offset="1" stop-color="#FFBB5B" stop-opacity="0"/>
</linearGradient>
<linearGradient id="paint12_linear_25_175" x1="15.2969" y1="23.0278" x2="15.2969" y2="21.8398" gradientUnits="userSpaceOnUse">
<stop offset="0.184" stop-color="#FF6F8C"/>
<stop offset="1" stop-color="#FF7A6A" stop-opacity="0"/>
</linearGradient>
<radialGradient id="paint13_radial_25_175" cx="0" cy="0" r="1" gradientUnits="userSpaceOnUse" gradientTransform="translate(25.9219 6.55879) rotate(113.385) scale(2.51945 2.08843)">
<stop offset="0.377" stop-color="#DD9049"/>
<stop offset="1" stop-color="#F8BF60" stop-opacity="0"/>
</radialGradient>
<radialGradient id="paint14_radial_25_175" cx="0" cy="0" r="1" gradientUnits="userSpaceOnUse" gradientTransform="translate(1.90589 6.69979) rotate(64.2172) scale(2.04759 1.11998)">
<stop offset="0.196" stop-color="#D7783D"/>
<stop offset="1" stop-color="#D7783D" stop-opacity="0"/>
</radialGradient>
<radialGradient id="paint15_radial_25_175" cx="0" cy="0" r="1" gradientUnits="userSpaceOnUse" gradientTransform="translate(13.8589 2.98879) rotate(76.0566) scale(1.16719 2.55601)">
<stop offset="0.382" stop-color="#D48C33"/>
<stop offset="1" stop-color="#FEB16A" stop-opacity="0"/>
</radialGradient>
<radialGradient id="paint16_radial_25_175" cx="0" cy="0" r="1" gradientUnits="userSpaceOnUse" gradientTransform="translate(19.8899 17.216) rotate(-51.5819) scale(2.31335 1.49271)">
<stop stop-color="#FF196C"/>
<stop offset="1" stop-color="#FF1F4A"/>
</radialGradient>
<radialGradient id="paint17_radial_25_175" cx="0" cy="0" r="1" gradientUnits="userSpaceOnUse" gradientTransform="translate(21.4839 15.996) rotate(149.744) scale(1.73656 1.09996)">
<stop offset="0.223" stop-color="#FF5873"/>
<stop offset="1" stop-color="#FF5873" stop-opacity="0"/>
</radialGradient>
<radialGradient id="paint18_radial_25_175" cx="0" cy="0" r="1" gradientUnits="userSpaceOnUse" gradientTransform="translate(7.6714 17.2777) rotate(-104.281) scale(1.77356 1.69812)">
<stop stop-color="#F6196C"/>
<stop offset="1" stop-color="#E42047"/>
</radialGradient>
<radialGradient id="paint19_radial_25_175" cx="0" cy="0" r="1" gradientUnits="userSpaceOnUse" gradientTransform="translate(8.40591 16.2) rotate(155.726) scale(0.874165 0.765696)">
<stop stop-color="#FE536F"/>
<stop offset="1" stop-color="#FE536F" stop-opacity="0"/>
</radialGradient>
<radialGradient id="paint20_radial_25_175" cx="0" cy="0" r="1" gradientUnits="userSpaceOnUse" gradientTransform="translate(2.51477 5.13085) rotate(135.198) scale(2.97287 3.09287)">
<stop offset="0.172" stop-color="#E7C04E"/>
<stop offset="1" stop-color="#D9972A"/>
</radialGradient>
<radialGradient id="paint21_radial_25_175" cx="0" cy="0" r="1" gradientUnits="userSpaceOnUse" gradientTransform="translate(1.07782 7.65308) rotate(-71.331) scale(1.65959 1.79772)">
<stop offset="0.065" stop-color="#DF8089"/>
<stop offset="1" stop-color="#DF8089" stop-opacity="0"/>
</radialGradient>
<radialGradient id="paint22_radial_25_175" cx="0" cy="0" r="1" gradientUnits="userSpaceOnUse" gradientTransform="translate(2.626 5.19492) rotate(141.017) scale(1.40706 0.727129)">
<stop stop-color="#FFDE71"/>
<stop offset="1" stop-color="#FFDE71" stop-opacity="0"/>
</radialGradient>
<radialGradient id="paint23_radial_25_175" cx="0" cy="0" r="1" gradientUnits="userSpaceOnUse" gradientTransform="translate(1.875 6.16992) rotate(180) scale(1.875 1.94872)">
<stop offset="0.488" stop-color="#E1AD3D" stop-opacity="0"/>
<stop offset="1" stop-color="#B9894B"/>
</radialGradient>
<radialGradient id="paint24_radial_25_175" cx="0" cy="0" r="1" gradientUnits="userSpaceOnUse" gradientTransform="translate(8.56165 4.16856) rotate(136.302) scale(2.91757 3.03227)">
<stop offset="0.172" stop-color="#E7C04E"/>
<stop offset="1" stop-color="#D9972A"/>
</radialGradient>
<radialGradient id="paint25_radial_25_175" cx="0" cy="0" r="1" gradientUnits="userSpaceOnUse" gradientTransform="translate(8.67096 4.23095) rotate(142.093) scale(1.38624 0.710136)">
<stop stop-color="#FFDE71"/>
<stop offset="1" stop-color="#FFDE71" stop-opacity="0"/>
</radialGradient>
<radialGradient id="paint26_radial_25_175" cx="0" cy="0" r="1" gradientUnits="userSpaceOnUse" gradientTransform="translate(7.43696 6.58995) rotate(-76.7987) scale(1.29998 1.7338)">
<stop stop-color="#E4A122"/>
<stop offset="1" stop-color="#E4A122" stop-opacity="0"/>
</radialGradient>
<radialGradient id="paint27_radial_25_175" cx="0" cy="0" r="1" gradientUnits="userSpaceOnUse" gradientTransform="translate(7.92096 5.16795) rotate(180) scale(1.875)">
<stop offset="0.488" stop-color="#E1AD3D" stop-opacity="0"/>
<stop offset="1" stop-color="#B9894B"/>
</radialGradient>
<radialGradient id="paint28_radial_25_175" cx="0" cy="0" r="1" gradientUnits="userSpaceOnUse" gradientTransform="translate(21.3277 4.62215) rotate(136.32) scale(2.39817 2.49246)">
<stop offset="0.172" stop-color="#F0C950"/>
<stop offset="1" stop-color="#C8861F"/>
</radialGradient>
<radialGradient id="paint29_radial_25_175" cx="0" cy="0" r="1" gradientUnits="userSpaceOnUse" gradientTransform="translate(21.531 4.35595) rotate(147.14) scale(1.33929 0.686075)">
<stop offset="0.184" stop-color="#FFDE71"/>
<stop offset="1" stop-color="#FFDE71" stop-opacity="0"/>
</radialGradient>
<radialGradient id="paint30_radial_25_175" cx="0" cy="0" r="1" gradientUnits="userSpaceOnUse" gradientTransform="translate(14.9833 15.7153) rotate(138.155) scale(2.81059)">
<stop stop-color="#5FBFFF"/>
<stop offset="1" stop-color="#3E94FF"/>
</radialGradient>
<linearGradient id="paint31_linear_25_175" x1="14.0701" y1="3.30884" x2="20.4141" y2="11.3088" gradientUnits="userSpaceOnUse">
<stop stop-color="#FFD678"/>
<stop offset="1" stop-color="#FFD678" stop-opacity="0"/>
</linearGradient>
<radialGradient id="paint32_radial_25_175" cx="0" cy="0" r="1" gradientUnits="userSpaceOnUse" gradientTransform="translate(20.4141 10.5278) rotate(-34.6679) scale(6.49725 1.74022)">
<stop offset="0.289" stop-color="#FFD175"/>
<stop offset="1" stop-color="#FFD175" stop-opacity="0"/>
</radialGradient>
<radialGradient id="paint33_radial_25_175" cx="0" cy="0" r="1" gradientUnits="userSpaceOnUse" gradientTransform="translate(15.2976 0.80889) rotate(125.606) scale(3.43521 2.91657)">
<stop offset="0.376" stop-color="#F3D154"/>
<stop offset="1" stop-color="#CC9848"/>
</radialGradient>
<radialGradient id="paint34_radial_25_175" cx="0" cy="0" r="1" gradientUnits="userSpaceOnUse" gradientTransform="translate(13.515 3.602) rotate(-79.3129) scale(1.83257 2.17841)">
<stop stop-color="#E78F5E"/>
<stop offset="1" stop-color="#E78F5E" stop-opacity="0"/>
</radialGradient>
<radialGradient id="paint35_radial_25_175" cx="0" cy="0" r="1" gradientUnits="userSpaceOnUse" gradientTransform="translate(14.609 2.403) rotate(-146.725) scale(3.58832 4.2918)">
<stop offset="0.557" stop-color="#E9C251" stop-opacity="0"/>
<stop offset="1" stop-color="#B49858"/>
</radialGradient>
<radialGradient id="paint36_radial_25_175" cx="0" cy="0" r="1" gradientUnits="userSpaceOnUse" gradientTransform="translate(15.922 0.996) rotate(156.06) scale(1.9831 1.52609)">
<stop stop-color="#FFED77"/>
<stop offset="1" stop-color="#FFED77" stop-opacity="0"/>
</radialGradient>
<radialGradient id="paint37_radial_25_175" cx="0" cy="0" r="1" gradientUnits="userSpaceOnUse" gradientTransform="translate(27.5152 5.13191) rotate(135.198) scale(2.97287 3.09287)">
<stop offset="0.172" stop-color="#F8CB54"/>
<stop offset="1" stop-color="#EAA34B"/>
</radialGradient>
<radialGradient id="paint38_radial_25_175" cx="0" cy="0" r="1" gradientUnits="userSpaceOnUse" gradientTransform="translate(26.079 7.65292) rotate(-71.3309) scale(1.65959 2.24326)">
<stop offset="0.16" stop-color="#F1907C"/>
<stop offset="1" stop-color="#F1907C" stop-opacity="0"/>
</radialGradient>
<radialGradient id="paint39_radial_25_175" cx="0" cy="0" r="1" gradientUnits="userSpaceOnUse" gradientTransform="translate(27.627 5.19592) rotate(141.017) scale(1.40706 0.727129)">
<stop stop-color="#FFDE71"/>
<stop offset="1" stop-color="#FFDE71" stop-opacity="0"/>
</radialGradient>
<radialGradient id="paint40_radial_25_175" cx="0" cy="0" r="1" gradientUnits="userSpaceOnUse" gradientTransform="translate(26.875 6.16992) rotate(180) scale(1.875 1.94872)">
<stop offset="0.488" stop-color="#E0A444" stop-opacity="0"/>
<stop offset="1" stop-color="#C6924D"/>
</radialGradient>
</defs>
</svg>
