<svg width="20" height="13" viewBox="0 0 20 13" fill="none" xmlns="http://www.w3.org/2000/svg">
<path d="M17.6099 5.182C17.6972 4.93758 17.8739 4.73771 18.1025 4.62484C18.3312 4.51197 18.5937 4.49501 18.8343 4.57756C19.075 4.66011 19.2748 4.83566 19.3912 5.06691C19.5077 5.29816 19.5317 5.56689 19.4581 5.816C19.4224 5.92574 19.3821 6.03584 19.3372 6.142C19.2592 6.332 19.1442 6.594 18.9863 6.904C18.6646 7.524 18.1636 8.35 17.4247 9.176C15.9333 10.846 13.4905 12.5 9.76094 12.5C6.03141 12.5 3.58861 10.846 2.09719 9.176C1.30172 8.27957 0.656157 7.25442 0.186612 6.142L0.0969313 5.916C0.0910826 5.9 0.0715867 5.796 0.052091 5.696L0.0130987 5.5C0.0130987 5.5 -0.150664 4.834 0.679852 4.552C0.924434 4.46821 1.19142 4.48725 1.42234 4.60495C1.65327 4.72265 1.82933 4.92942 1.91198 5.18L1.91198 5.186L1.92368 5.218L1.98411 5.374C2.36708 6.2725 2.89062 7.10075 3.53402 7.826C4.72326 9.152 6.66697 10.5 9.76094 10.5C12.8549 10.5 14.7986 9.154 15.9879 7.824C16.6311 7.09935 17.1546 6.27179 17.5378 5.374L17.5963 5.218L17.6099 5.182Z" fill="#67758C"/>
</svg>
