<svg width="20" height="13" viewBox="0 0 20 13" fill="none" xmlns="http://www.w3.org/2000/svg">
<path d="M1.8901 7.818C1.80283 8.06242 1.6261 8.26229 1.39746 8.37516C1.16882 8.48803 0.906291 8.50499 0.665654 8.42244C0.425017 8.33989 0.225239 8.16434 0.108768 7.93309C-0.00770415 7.70184 -0.0316893 7.43311 0.0419083 7.184C0.077613 7.07426 0.117942 6.96416 0.162782 6.858C0.240764 6.668 0.355789 6.406 0.513704 6.096C0.835383 5.476 1.33642 4.65 2.07531 3.824C3.56673 2.154 6.00954 0.5 9.73906 0.5C13.4686 0.5 15.9114 2.154 17.4028 3.824C18.1983 4.72043 18.8438 5.74558 19.3134 6.858L19.4031 7.084C19.4089 7.1 19.4284 7.204 19.4479 7.304L19.4869 7.5C19.4869 7.5 19.6507 8.166 18.8201 8.448C18.5756 8.53179 18.3086 8.51275 18.0777 8.39505C17.8467 8.27735 17.6707 8.07057 17.588 7.82V7.814L17.5763 7.782L17.5159 7.626C17.1329 6.7275 16.6094 5.89925 15.966 5.174C14.7767 3.848 12.833 2.5 9.73906 2.5C6.6451 2.5 4.70138 3.846 3.51214 5.176C2.86892 5.90065 2.34539 6.72821 1.96223 7.626L1.90375 7.782L1.8901 7.818ZM5.83992 8.5C5.83992 7.43913 6.25072 6.42172 6.98195 5.67157C7.71318 4.92143 8.70495 4.5 9.73906 4.5C10.7732 4.5 11.7649 4.92143 12.4962 5.67157C13.2274 6.42172 13.6382 7.43913 13.6382 8.5C13.6382 9.56087 13.2274 10.5783 12.4962 11.3284C11.7649 12.0786 10.7732 12.5 9.73906 12.5C8.70495 12.5 7.71318 12.0786 6.98195 11.3284C6.25072 10.5783 5.83992 9.56087 5.83992 8.5Z" fill="#67758C"/>
<path d="M1.8901 7.818C1.80283 8.06242 1.6261 8.26229 1.39746 8.37516C1.16882 8.48803 0.906291 8.50499 0.665654 8.42244C0.425017 8.33989 0.225239 8.16434 0.108768 7.93309C-0.00770415 7.70184 -0.0316893 7.43311 0.0419083 7.184C0.077613 7.07426 0.117942 6.96416 0.162782 6.858C0.240764 6.668 0.355789 6.406 0.513704 6.096C0.835383 5.476 1.33642 4.65 2.07531 3.824C3.56673 2.154 6.00954 0.5 9.73906 0.5C13.4686 0.5 15.9114 2.154 17.4028 3.824C18.1983 4.72043 18.8438 5.74558 19.3134 6.858L19.4031 7.084C19.4089 7.1 19.4284 7.204 19.4479 7.304L19.4869 7.5C19.4869 7.5 19.6507 8.166 18.8201 8.448C18.5756 8.53179 18.3086 8.51275 18.0777 8.39505C17.8467 8.27735 17.6707 8.07057 17.588 7.82V7.814L17.5763 7.782L17.5159 7.626C17.1329 6.7275 16.6094 5.89925 15.966 5.174C14.7767 3.848 12.833 2.5 9.73906 2.5C6.6451 2.5 4.70138 3.846 3.51214 5.176C2.86892 5.90065 2.34539 6.72821 1.96223 7.626L1.90375 7.782L1.8901 7.818ZM5.83992 8.5C5.83992 7.43913 6.25072 6.42172 6.98195 5.67157C7.71318 4.92143 8.70495 4.5 9.73906 4.5C10.7732 4.5 11.7649 4.92143 12.4962 5.67157C13.2274 6.42172 13.6382 7.43913 13.6382 8.5C13.6382 9.56087 13.2274 10.5783 12.4962 11.3284C11.7649 12.0786 10.7732 12.5 9.73906 12.5C8.70495 12.5 7.71318 12.0786 6.98195 11.3284C6.25072 10.5783 5.83992 9.56087 5.83992 8.5Z" fill="#3786F2"/>
</svg>
