<svg width="30" height="35" viewBox="0 0 30 35" fill="none" xmlns="http://www.w3.org/2000/svg">
<path d="M11.6707 3.31169H18.3366C19.2531 3.31169 20.003 2.56656 20.003 1.65584C20.003 0.74513 19.2531 0 18.3366 0H11.6707C10.7541 0 10.0042 0.74513 10.0042 1.65584C10.0042 2.56656 10.7541 3.31169 11.6707 3.31169ZM26.7189 10.5808L27.9688 9.33896C28.2769 9.0309 28.4499 8.61421 28.4499 8.17987C28.4499 7.74553 28.2769 7.32884 27.9688 7.02078L27.9521 7.00422C27.6421 6.69804 27.2227 6.52619 26.7856 6.52619C26.3485 6.52619 25.9291 6.69804 25.6191 7.00422L24.3692 8.2461C21.7152 6.12361 18.4105 4.96675 15.0036 4.96753C7.00453 4.96753 0.205311 11.5247 0.00533404 19.4727C-0.0480984 21.4629 0.300361 23.4436 1.03014 25.2978C1.75991 27.152 2.8562 28.8421 4.25428 30.2683C5.65236 31.6945 7.32387 32.8279 9.17011 33.6016C11.0164 34.3752 12.9999 34.7734 15.0036 34.7727C17.8271 34.7742 20.5937 33.9833 22.9846 32.4909C25.3755 30.9985 27.2935 28.8655 28.5178 26.3374C29.742 23.8093 30.2227 20.9891 29.9045 18.2015C29.5862 15.4138 28.482 12.7722 26.7189 10.5808ZM16.6701 19.8701C16.6701 20.7808 15.9202 21.526 15.0036 21.526C14.087 21.526 13.3371 20.7808 13.3371 19.8701V13.2468C13.3371 12.336 14.087 11.5909 15.0036 11.5909C15.9202 11.5909 16.6701 12.336 16.6701 13.2468V19.8701Z" fill="white"/>
</svg>
